<mxfile host="app.diagrams.net" modified="2021-11-17T11:00:28.379Z" agent="5.0 (Windows NT 10.0; Win64; x64) AppleWebKit/537.36 (KHTML, like Gecko) Chrome/95.0.4638.69 Safari/537.36" etag="LHxWhaIj0dBs6qSe__WG" version="15.7.4" type="github">
  <diagram id="sQ8EXhfYu_Z4RW1TYD9f" name="Page-1">
    <mxGraphModel dx="1422" dy="762" grid="1" gridSize="10" guides="1" tooltips="1" connect="0" arrows="1" fold="1" page="1" pageScale="1" pageWidth="827" pageHeight="1169" math="0" shadow="0">
      <root>
        <mxCell id="0" />
        <mxCell id="1" parent="0" />
        <mxCell id="wOnGFkAYj0Utu0_wV-MN-16" value="구현" style="swimlane;fillColor=#dae8fc;strokeColor=#6c8ebf;" parent="1" vertex="1">
          <mxGeometry x="270" y="50" width="339" height="660" as="geometry" />
        </mxCell>
        <mxCell id="ne8HtMgkfAkVyHzjPCBy-1" value="로컬데이터 초기화해주기" style="rounded=1;whiteSpace=wrap;html=1;" parent="wOnGFkAYj0Utu0_wV-MN-16" vertex="1">
          <mxGeometry x="10" y="30" width="159" height="60" as="geometry" />
        </mxCell>
        <mxCell id="wOnGFkAYj0Utu0_wV-MN-17" value="분석 | 논의" style="swimlane;strokeColor=#82b366;fillColor=#D5E8D4;" parent="1" vertex="1">
          <mxGeometry x="49" y="50" width="211" height="270" as="geometry" />
        </mxCell>
        <mxCell id="fKnXUZ_Y8Yj8oVJBZo9e-6" value="극단적인 화면 비율에 따른 UI 변화 대응책" style="rounded=1;whiteSpace=wrap;html=1;" parent="wOnGFkAYj0Utu0_wV-MN-17" vertex="1">
          <mxGeometry x="11" y="30" width="159" height="60" as="geometry" />
        </mxCell>
        <mxCell id="7aeweUhe6Mv9d77EpXdP-2" value="현재 거점 진입시 로딩 없이&lt;br&gt;들어가도록 수정" style="rounded=1;whiteSpace=wrap;html=1;" vertex="1" parent="wOnGFkAYj0Utu0_wV-MN-17">
          <mxGeometry x="11" y="170" width="159" height="60" as="geometry" />
        </mxCell>
        <mxCell id="7aeweUhe6Mv9d77EpXdP-1" value="포커싱 기능 변경" style="rounded=1;whiteSpace=wrap;html=1;" vertex="1" parent="wOnGFkAYj0Utu0_wV-MN-17">
          <mxGeometry x="11" y="100" width="159" height="60" as="geometry" />
        </mxCell>
        <mxCell id="MTrl5ynQiznJmTlUDSWs-4" value="대기 | 요청" style="swimlane;strokeColor=#d79b00;fillColor=#ffe6cc;" parent="1" vertex="1">
          <mxGeometry x="49" y="330" width="210" height="380" as="geometry" />
        </mxCell>
        <mxCell id="JvFQZsxhrIlM6GvxB-Bj-3" value="챕터 변경 연출&lt;br&gt;(다수 챕터 필요한 모든 연출)&lt;br&gt;[기획 이푸른님]" style="rounded=1;whiteSpace=wrap;html=1;" parent="MTrl5ynQiznJmTlUDSWs-4" vertex="1">
          <mxGeometry x="20.5" y="30" width="159" height="60" as="geometry" />
        </mxCell>
        <mxCell id="9A0mLHsorhuxDrabdEOj-9" value="에러 | 수정" style="swimlane;fillColor=#f8cecc;strokeColor=#b85450;startSize=23;" parent="1" vertex="1">
          <mxGeometry x="620" y="440" width="500" height="270" as="geometry" />
        </mxCell>
        <mxCell id="EDcrVo7AF0hrpLyj6o9w-1" value="솟시마을 인근 마지막 스테이지 클리어시 스테이지 리스트 노출 안되게 하기" style="rounded=1;whiteSpace=wrap;html=1;" parent="9A0mLHsorhuxDrabdEOj-9" vertex="1">
          <mxGeometry x="20" y="30" width="159" height="60" as="geometry" />
        </mxCell>
        <mxCell id="7aeweUhe6Mv9d77EpXdP-3" value="스테이지 위젯 스토리 스테이지 클리어 표기" style="rounded=1;whiteSpace=wrap;html=1;" vertex="1" parent="9A0mLHsorhuxDrabdEOj-9">
          <mxGeometry x="20" y="100" width="159" height="60" as="geometry" />
        </mxCell>
        <mxCell id="7aeweUhe6Mv9d77EpXdP-4" value="지역락 UI 변경점 대응" style="rounded=1;whiteSpace=wrap;html=1;" vertex="1" parent="9A0mLHsorhuxDrabdEOj-9">
          <mxGeometry x="20" y="170" width="159" height="60" as="geometry" />
        </mxCell>
        <mxCell id="hDPYIisuoytdxOGGVnbc-3" value="     폐기 | 완료" style="swimlane;strokeColor=#666666;fillColor=#f5f5f5;fontColor=#333333;align=left;" parent="1" vertex="1">
          <mxGeometry x="1130" y="50" width="1230" height="950" as="geometry" />
        </mxCell>
        <mxCell id="atVRBHWBVTBCoCOBbs-6-2" value="UI 작업현황 확인하고 실장님께 보고" style="rounded=1;whiteSpace=wrap;html=1;" parent="hDPYIisuoytdxOGGVnbc-3" vertex="1">
          <mxGeometry x="10" y="30" width="159" height="60" as="geometry" />
        </mxCell>
        <mxCell id="8GiOX_5ZcvJH73Y0Fhzy-2" value="월드맵 클래스 생성" style="rounded=1;whiteSpace=wrap;html=1;" parent="hDPYIisuoytdxOGGVnbc-3" vertex="1">
          <mxGeometry x="10" y="100" width="159" height="60" as="geometry" />
        </mxCell>
        <mxCell id="8GiOX_5ZcvJH73Y0Fhzy-1" value="메인 메뉴 위젯에서 월드맵 출력" style="rounded=1;whiteSpace=wrap;html=1;" parent="hDPYIisuoytdxOGGVnbc-3" vertex="1">
          <mxGeometry x="10" y="170" width="159" height="60" as="geometry" />
        </mxCell>
        <mxCell id="lYunYYrA7qYBkTZxslzv-2" value="월드맵에서 이동을 어떻게 처리할 것인지 생각해보기" style="rounded=1;whiteSpace=wrap;html=1;" parent="hDPYIisuoytdxOGGVnbc-3" vertex="1">
          <mxGeometry x="10" y="240" width="159" height="60" as="geometry" />
        </mxCell>
        <mxCell id="8GiOX_5ZcvJH73Y0Fhzy-7" value="Area와 관련된 Mapper 생성" style="rounded=1;whiteSpace=wrap;html=1;" parent="hDPYIisuoytdxOGGVnbc-3" vertex="1">
          <mxGeometry x="10" y="380" width="159" height="60" as="geometry" />
        </mxCell>
        <mxCell id="fKnXUZ_Y8Yj8oVJBZo9e-3" value="월드맵에 지역 아이콘 배치" style="rounded=1;whiteSpace=wrap;html=1;" parent="hDPYIisuoytdxOGGVnbc-3" vertex="1">
          <mxGeometry x="10" y="450" width="159" height="60" as="geometry" />
        </mxCell>
        <mxCell id="8GiOX_5ZcvJH73Y0Fhzy-4" value="월드맵 지역락 구현" style="rounded=1;whiteSpace=wrap;html=1;" parent="hDPYIisuoytdxOGGVnbc-3" vertex="1">
          <mxGeometry x="10" y="310" width="159" height="60" as="geometry" />
        </mxCell>
        <mxCell id="8GiOX_5ZcvJH73Y0Fhzy-10" value="지역별 설명 UI 구현" style="rounded=1;whiteSpace=wrap;html=1;" parent="hDPYIisuoytdxOGGVnbc-3" vertex="1">
          <mxGeometry x="10" y="520" width="159" height="60" as="geometry" />
        </mxCell>
        <mxCell id="NNDFR1LKHZ_8l8TIc3SD-2" value="진행도 위해서 배너 클래스 상속" style="rounded=1;whiteSpace=wrap;html=1;" parent="hDPYIisuoytdxOGGVnbc-3" vertex="1">
          <mxGeometry x="10" y="590" width="159" height="60" as="geometry" />
        </mxCell>
        <mxCell id="YfF9ztZLRGlCkRkIGvAC-5" value="챕터 진행도 표시" style="rounded=1;whiteSpace=wrap;html=1;" parent="hDPYIisuoytdxOGGVnbc-3" vertex="1">
          <mxGeometry x="10" y="660" width="159" height="60" as="geometry" />
        </mxCell>
        <mxCell id="8GiOX_5ZcvJH73Y0Fhzy-8" value="챕터 스크롤 구현" style="rounded=1;whiteSpace=wrap;html=1;" parent="hDPYIisuoytdxOGGVnbc-3" vertex="1">
          <mxGeometry x="10" y="730" width="159" height="60" as="geometry" />
        </mxCell>
        <mxCell id="YfF9ztZLRGlCkRkIGvAC-9" value="챕터 ID 구조 변경" style="rounded=1;whiteSpace=wrap;html=1;" parent="hDPYIisuoytdxOGGVnbc-3" vertex="1">
          <mxGeometry x="10" y="800" width="159" height="60" as="geometry" />
        </mxCell>
        <mxCell id="5TGIPtgfNIGxRz2AxhJH-1" value="월드맵 이동방식 개선" style="rounded=1;whiteSpace=wrap;html=1;" parent="hDPYIisuoytdxOGGVnbc-3" vertex="1">
          <mxGeometry x="10" y="870" width="159" height="60" as="geometry" />
        </mxCell>
        <mxCell id="YfF9ztZLRGlCkRkIGvAC-4" value="변경된 챕터 ID 반영&lt;br&gt;[서버 최종훈님]" style="rounded=1;whiteSpace=wrap;html=1;" parent="hDPYIisuoytdxOGGVnbc-3" vertex="1">
          <mxGeometry x="180" y="30" width="159" height="60" as="geometry" />
        </mxCell>
        <mxCell id="YfF9ztZLRGlCkRkIGvAC-12" value="스테이지 상세설명" style="rounded=1;whiteSpace=wrap;html=1;" parent="hDPYIisuoytdxOGGVnbc-3" vertex="1">
          <mxGeometry x="180" y="100" width="159" height="60" as="geometry" />
        </mxCell>
        <mxCell id="YfF9ztZLRGlCkRkIGvAC-7" value="월드맵에서 전투로 이동" style="rounded=1;whiteSpace=wrap;html=1;" parent="hDPYIisuoytdxOGGVnbc-3" vertex="1">
          <mxGeometry x="180" y="170" width="159" height="60" as="geometry" />
        </mxCell>
        <mxCell id="YfF9ztZLRGlCkRkIGvAC-10" value="몬스터 포트레이트수정 요청&lt;br&gt;[기획 이상민님]" style="rounded=1;whiteSpace=wrap;html=1;" parent="hDPYIisuoytdxOGGVnbc-3" vertex="1">
          <mxGeometry x="180" y="240" width="159" height="60" as="geometry" />
        </mxCell>
        <mxCell id="32iTDsRpcqnxO3VkxNKm-3" value="인카운터 스테이지 리스트에서 제외" style="rounded=1;whiteSpace=wrap;html=1;" parent="hDPYIisuoytdxOGGVnbc-3" vertex="1">
          <mxGeometry x="180" y="310" width="159" height="60" as="geometry" />
        </mxCell>
        <mxCell id="fKnXUZ_Y8Yj8oVJBZo9e-4" value="챕터 보상 챕터 스크롤과 연동" style="rounded=1;whiteSpace=wrap;html=1;" parent="hDPYIisuoytdxOGGVnbc-3" vertex="1">
          <mxGeometry x="180" y="380" width="159" height="60" as="geometry" />
        </mxCell>
        <mxCell id="YfF9ztZLRGlCkRkIGvAC-11" value="베이스 포인트 입장 기능" style="rounded=1;whiteSpace=wrap;html=1;" parent="hDPYIisuoytdxOGGVnbc-3" vertex="1">
          <mxGeometry x="180" y="450" width="159" height="60" as="geometry" />
        </mxCell>
        <mxCell id="32iTDsRpcqnxO3VkxNKm-2" value="마우스 이동 로그 남기기" style="rounded=1;whiteSpace=wrap;html=1;" parent="hDPYIisuoytdxOGGVnbc-3" vertex="1">
          <mxGeometry x="180" y="520" width="159" height="60" as="geometry" />
        </mxCell>
        <mxCell id="YfF9ztZLRGlCkRkIGvAC-1" value="전부 클리어랑 마지막스테이지 차례를 구분할 방법 생각해보기" style="rounded=1;whiteSpace=wrap;html=1;" parent="hDPYIisuoytdxOGGVnbc-3" vertex="1">
          <mxGeometry x="180" y="590" width="159" height="60" as="geometry" />
        </mxCell>
        <mxCell id="YfF9ztZLRGlCkRkIGvAC-3" value="베이스 포인트 입장버튼이 눌리지 않는 문제" style="rounded=1;whiteSpace=wrap;html=1;" parent="hDPYIisuoytdxOGGVnbc-3" vertex="1">
          <mxGeometry x="180" y="660" width="159" height="60" as="geometry" />
        </mxCell>
        <mxCell id="NNDFR1LKHZ_8l8TIc3SD-1" value="베이스 포인트 입장 버튼 Delegate 처리" style="rounded=1;whiteSpace=wrap;html=1;" parent="hDPYIisuoytdxOGGVnbc-3" vertex="1">
          <mxGeometry x="180" y="730" width="159" height="60" as="geometry" />
        </mxCell>
        <mxCell id="8GiOX_5ZcvJH73Y0Fhzy-9" value="지역 퀘스트 타겟 표기 구현" style="rounded=1;whiteSpace=wrap;html=1;" parent="hDPYIisuoytdxOGGVnbc-3" vertex="1">
          <mxGeometry x="180" y="800" width="159" height="60" as="geometry" />
        </mxCell>
        <mxCell id="32iTDsRpcqnxO3VkxNKm-5" value="스테이지 퀘스트 타겟 표기 구현" style="rounded=1;whiteSpace=wrap;html=1;" parent="hDPYIisuoytdxOGGVnbc-3" vertex="1">
          <mxGeometry x="180" y="870" width="159" height="60" as="geometry" />
        </mxCell>
        <mxCell id="32iTDsRpcqnxO3VkxNKm-1" value="스테이지 클릭시 다른 스테이지의 아이콘이 변하는 문제" style="rounded=1;whiteSpace=wrap;html=1;" parent="hDPYIisuoytdxOGGVnbc-3" vertex="1">
          <mxGeometry x="350" y="30" width="159" height="60" as="geometry" />
        </mxCell>
        <mxCell id="YfF9ztZLRGlCkRkIGvAC-6" value="지역 진행도 표시" style="rounded=1;whiteSpace=wrap;html=1;" parent="hDPYIisuoytdxOGGVnbc-3" vertex="1">
          <mxGeometry x="350" y="100" width="159" height="60" as="geometry" />
        </mxCell>
        <mxCell id="YfF9ztZLRGlCkRkIGvAC-2" value="지역 완료 연출 호출" style="rounded=1;whiteSpace=wrap;html=1;" parent="hDPYIisuoytdxOGGVnbc-3" vertex="1">
          <mxGeometry x="350" y="170" width="159" height="60" as="geometry" />
        </mxCell>
        <mxCell id="32iTDsRpcqnxO3VkxNKm-6" value="스테이지 락 기능 가능성 여쭤보기&lt;br&gt;[종훈님]" style="rounded=1;whiteSpace=wrap;html=1;" parent="hDPYIisuoytdxOGGVnbc-3" vertex="1">
          <mxGeometry x="350" y="240" width="159" height="60" as="geometry" />
        </mxCell>
        <mxCell id="SFROFrCYzg7VlvZK26Fv-1" value="스테이지 진행 후 월드맵으로 보내기" style="rounded=1;whiteSpace=wrap;html=1;" parent="hDPYIisuoytdxOGGVnbc-3" vertex="1">
          <mxGeometry x="350" y="310" width="159" height="60" as="geometry" />
        </mxCell>
        <mxCell id="mTPu1nSo0R1RRkqdtAdQ-1" value="CombatSetting이 Cinema 위에 호출됨" style="rounded=1;whiteSpace=wrap;html=1;" parent="hDPYIisuoytdxOGGVnbc-3" vertex="1">
          <mxGeometry x="350" y="380" width="159" height="60" as="geometry" />
        </mxCell>
        <mxCell id="mTPu1nSo0R1RRkqdtAdQ-5" value="월드맵 이동 뷰포트에 독립적이게 구성" style="rounded=1;whiteSpace=wrap;html=1;" parent="hDPYIisuoytdxOGGVnbc-3" vertex="1">
          <mxGeometry x="350" y="450" width="159" height="60" as="geometry" />
        </mxCell>
        <mxCell id="fKnXUZ_Y8Yj8oVJBZo9e-1" value="월드맵 위젯에서 챕터, Area 정보 받아오기&lt;br&gt;(챕터 배경)" style="rounded=1;whiteSpace=wrap;html=1;" parent="hDPYIisuoytdxOGGVnbc-3" vertex="1">
          <mxGeometry x="350" y="520" width="159" height="60" as="geometry" />
        </mxCell>
        <mxCell id="mTPu1nSo0R1RRkqdtAdQ-6" value="지역 아이콘 밑에 진행도 숫자 띄우기" style="rounded=1;whiteSpace=wrap;html=1;" parent="hDPYIisuoytdxOGGVnbc-3" vertex="1">
          <mxGeometry x="350" y="590" width="159" height="60" as="geometry" />
        </mxCell>
        <mxCell id="mTPu1nSo0R1RRkqdtAdQ-8" value="진행가능 스테이지 자동 선택 표시" style="rounded=1;whiteSpace=wrap;html=1;" parent="hDPYIisuoytdxOGGVnbc-3" vertex="1">
          <mxGeometry x="350" y="660" width="159" height="60" as="geometry" />
        </mxCell>
        <mxCell id="mTPu1nSo0R1RRkqdtAdQ-4" value="인카운터 전투 종료 후 베이스 포인트로 이동하게 하기" style="rounded=1;whiteSpace=wrap;html=1;" parent="hDPYIisuoytdxOGGVnbc-3" vertex="1">
          <mxGeometry x="350" y="730" width="159" height="60" as="geometry" />
        </mxCell>
        <mxCell id="mTPu1nSo0R1RRkqdtAdQ-3" value="완료된 Stage Area의 경우 클릭 불가 처리" style="rounded=1;whiteSpace=wrap;html=1;" parent="hDPYIisuoytdxOGGVnbc-3" vertex="1">
          <mxGeometry x="350" y="800" width="159" height="60" as="geometry" />
        </mxCell>
        <mxCell id="mTPu1nSo0R1RRkqdtAdQ-9" value="잠긴 지역 클릭시 토스트 출력" style="rounded=1;whiteSpace=wrap;html=1;" parent="hDPYIisuoytdxOGGVnbc-3" vertex="1">
          <mxGeometry x="350" y="870" width="160" height="60" as="geometry" />
        </mxCell>
        <mxCell id="mTPu1nSo0R1RRkqdtAdQ-10" value="클리어한 스테이지 클릭시 토스트 팝업" style="rounded=1;whiteSpace=wrap;html=1;fillColor=default;strokeColor=default;fontColor=default;" parent="hDPYIisuoytdxOGGVnbc-3" vertex="1">
          <mxGeometry x="519.5" y="30" width="160" height="60" as="geometry" />
        </mxCell>
        <mxCell id="JcdMrhdxGSStzC7vy00--23" value="퀘스트 타겟 테이블 잘못 참조하는 문제 해결" style="rounded=1;whiteSpace=wrap;html=1;fillColor=default;strokeColor=default;fontColor=default;" parent="hDPYIisuoytdxOGGVnbc-3" vertex="1">
          <mxGeometry x="520.5" y="170" width="159" height="60" as="geometry" />
        </mxCell>
        <mxCell id="mTPu1nSo0R1RRkqdtAdQ-7" value="지역 아이콘 지역명에 딤드 안보이게 처리" style="rounded=1;whiteSpace=wrap;html=1;fillColor=default;strokeColor=default;fontColor=default;" parent="hDPYIisuoytdxOGGVnbc-3" vertex="1">
          <mxGeometry x="520.5" y="100" width="159" height="60" as="geometry" />
        </mxCell>
        <mxCell id="mTPu1nSo0R1RRkqdtAdQ-2" value="Area 완료 체크에서 인카운터 스테이지 계산 제외" style="rounded=1;whiteSpace=wrap;html=1;fillColor=default;strokeColor=default;fontColor=default;" parent="hDPYIisuoytdxOGGVnbc-3" vertex="1">
          <mxGeometry x="519.5" y="240" width="159" height="60" as="geometry" />
        </mxCell>
        <mxCell id="mTPu1nSo0R1RRkqdtAdQ-16" value="지역 클리어시 스테이지 리스트 안띄운채로 월드맵 켜기" style="rounded=1;whiteSpace=wrap;html=1;fillColor=default;strokeColor=default;fontColor=default;" parent="hDPYIisuoytdxOGGVnbc-3" vertex="1">
          <mxGeometry x="520.5" y="310" width="159" height="60" as="geometry" />
        </mxCell>
        <mxCell id="mTPu1nSo0R1RRkqdtAdQ-18" value="월드맵에서 다음전투 인카운터일때 자동 포커싱 막기" style="rounded=1;whiteSpace=wrap;html=1;fillColor=default;strokeColor=default;fontColor=default;" parent="hDPYIisuoytdxOGGVnbc-3" vertex="1">
          <mxGeometry x="520.5" y="380" width="159" height="60" as="geometry" />
        </mxCell>
        <mxCell id="mTPu1nSo0R1RRkqdtAdQ-12" value="잠긴 스테이지 클릭시 토스트 팝업" style="rounded=1;whiteSpace=wrap;html=1;fillColor=default;strokeColor=default;fontColor=default;" parent="hDPYIisuoytdxOGGVnbc-3" vertex="1">
          <mxGeometry x="518.5" y="450" width="160" height="60" as="geometry" />
        </mxCell>
        <mxCell id="mTPu1nSo0R1RRkqdtAdQ-17" value="구름 애니메이션 연출" style="rounded=1;whiteSpace=wrap;html=1;fillColor=default;strokeColor=default;fontColor=default;" parent="hDPYIisuoytdxOGGVnbc-3" vertex="1">
          <mxGeometry x="516.5" y="520" width="163" height="60" as="geometry" />
        </mxCell>
        <mxCell id="JcdMrhdxGSStzC7vy00--21" value="StoryStarAmount 딤드 패널 삭제" style="rounded=1;whiteSpace=wrap;html=1;fillColor=default;strokeColor=default;fontColor=default;" parent="hDPYIisuoytdxOGGVnbc-3" vertex="1">
          <mxGeometry x="519" y="590" width="159" height="60" as="geometry" />
        </mxCell>
        <mxCell id="8GiOX_5ZcvJH73Y0Fhzy-3" value="기존 챕터 지도 팝업 삭제" style="rounded=1;whiteSpace=wrap;html=1;fillColor=default;strokeColor=default;fontColor=default;" parent="hDPYIisuoytdxOGGVnbc-3" vertex="1">
          <mxGeometry x="516.5" y="660" width="159" height="60" as="geometry" />
        </mxCell>
        <mxCell id="8GiOX_5ZcvJH73Y0Fhzy-5" value="챕터 완료 연출을 위해 쓰던 코드 삭제" style="rounded=1;whiteSpace=wrap;html=1;fillColor=default;strokeColor=default;fontColor=default;" parent="hDPYIisuoytdxOGGVnbc-3" vertex="1">
          <mxGeometry x="519.5" y="730" width="159" height="60" as="geometry" />
        </mxCell>
        <mxCell id="32iTDsRpcqnxO3VkxNKm-4" value="인카운터 데이터테이블 수정" style="rounded=1;whiteSpace=wrap;html=1;fillColor=default;strokeColor=default;fontColor=default;" parent="hDPYIisuoytdxOGGVnbc-3" vertex="1">
          <mxGeometry x="520.5" y="800" width="159" height="60" as="geometry" />
        </mxCell>
        <mxCell id="u-zzOmrkJS4MpRmy39Oz-1" value="ProgressBar 수정" style="rounded=1;whiteSpace=wrap;html=1;fillColor=default;strokeColor=default;fontColor=default;" parent="hDPYIisuoytdxOGGVnbc-3" vertex="1">
          <mxGeometry x="520.5" y="870" width="159" height="60" as="geometry" />
        </mxCell>
        <mxCell id="u-zzOmrkJS4MpRmy39Oz-2" value="스테이지 리스트의 아이콘 연동" style="rounded=1;whiteSpace=wrap;html=1;" parent="hDPYIisuoytdxOGGVnbc-3" vertex="1">
          <mxGeometry x="690" y="30" width="159" height="60" as="geometry" />
        </mxCell>
        <mxCell id="JcdMrhdxGSStzC7vy00--1" value="오픈 조건에 따라 스테이지 막기" style="rounded=1;whiteSpace=wrap;html=1;" parent="hDPYIisuoytdxOGGVnbc-3" vertex="1">
          <mxGeometry x="690" y="100" width="160" height="60" as="geometry" />
        </mxCell>
        <mxCell id="u-zzOmrkJS4MpRmy39Oz-3" value="스테이지 진행불가 팝업 버튼을 눌렀을 때만 나오게 처리" style="rounded=1;whiteSpace=wrap;html=1;" parent="hDPYIisuoytdxOGGVnbc-3" vertex="1">
          <mxGeometry x="690" y="170" width="159" height="60" as="geometry" />
        </mxCell>
        <mxCell id="u-zzOmrkJS4MpRmy39Oz-4" value="스테이지 진행불가 팝업 퀘스트 네임에서 노티로 수정" style="rounded=1;whiteSpace=wrap;html=1;" parent="hDPYIisuoytdxOGGVnbc-3" vertex="1">
          <mxGeometry x="690" y="240" width="159" height="60" as="geometry" />
        </mxCell>
        <mxCell id="JcdMrhdxGSStzC7vy00--22" value="보상 탭 고치기" style="rounded=1;whiteSpace=wrap;html=1;" parent="hDPYIisuoytdxOGGVnbc-3" vertex="1">
          <mxGeometry x="691" y="310" width="159" height="60" as="geometry" />
        </mxCell>
        <mxCell id="u-zzOmrkJS4MpRmy39Oz-34" value="디졸브 삭제" style="rounded=1;whiteSpace=wrap;html=1;" parent="hDPYIisuoytdxOGGVnbc-3" vertex="1">
          <mxGeometry x="690" y="380" width="160" height="60" as="geometry" />
        </mxCell>
        <mxCell id="0nPy4N3juvfmv_uaInZj-2" value="월드맵 포커스 이동 기능" style="rounded=1;whiteSpace=wrap;html=1;" parent="hDPYIisuoytdxOGGVnbc-3" vertex="1">
          <mxGeometry x="691" y="450" width="159" height="60" as="geometry" />
        </mxCell>
        <mxCell id="0nPy4N3juvfmv_uaInZj-1" value="월드맵 마우스 위젯 위에선 차단할 방법 찾기" style="rounded=1;whiteSpace=wrap;html=1;fillColor=default;strokeColor=default;fontColor=default;" parent="hDPYIisuoytdxOGGVnbc-3" vertex="1">
          <mxGeometry x="690" y="520" width="159" height="60" as="geometry" />
        </mxCell>
        <mxCell id="lIS4hiFMWc-Y0QBGkMAu-1" value="스테이지 리스트도 다 안차있을 때 스크롤기능 되도록 수정" style="rounded=1;whiteSpace=wrap;html=1;fillColor=default;strokeColor=default;fontColor=default;" parent="hDPYIisuoytdxOGGVnbc-3" vertex="1">
          <mxGeometry x="691" y="590" width="159" height="60" as="geometry" />
        </mxCell>
        <mxCell id="fKnXUZ_Y8Yj8oVJBZo9e-2" value="Phase Mapper 정리하기" style="rounded=1;whiteSpace=wrap;html=1;fillColor=default;strokeColor=default;fontColor=default;" parent="hDPYIisuoytdxOGGVnbc-3" vertex="1">
          <mxGeometry x="691" y="660" width="159" height="60" as="geometry" />
        </mxCell>
        <mxCell id="8GiOX_5ZcvJH73Y0Fhzy-6" value="페이즈 관련 코드들 Area로 변경" style="rounded=1;whiteSpace=wrap;html=1;fillColor=default;strokeColor=default;fontColor=default;" parent="hDPYIisuoytdxOGGVnbc-3" vertex="1">
          <mxGeometry x="691" y="730" width="159" height="60" as="geometry" />
        </mxCell>
        <mxCell id="YfF9ztZLRGlCkRkIGvAC-8" value="PV_Widget_&lt;br&gt;AdventureStagePortrait&lt;br&gt;명칭 수정" style="rounded=1;whiteSpace=wrap;html=1;fillColor=default;strokeColor=default;fontColor=default;" parent="hDPYIisuoytdxOGGVnbc-3" vertex="1">
          <mxGeometry x="691" y="800" width="160" height="60" as="geometry" />
        </mxCell>
        <mxCell id="0nPy4N3juvfmv_uaInZj-3" value="안쓰는 위젯 삭제" style="rounded=1;whiteSpace=wrap;html=1;fillColor=default;strokeColor=default;fontColor=default;" parent="hDPYIisuoytdxOGGVnbc-3" vertex="1">
          <mxGeometry x="690" y="870" width="160" height="60" as="geometry" />
        </mxCell>
        <mxCell id="pFrNJoCVi7BeC573tgVh-1" value="마우스 로그 코드 삭제" style="rounded=1;whiteSpace=wrap;html=1;" parent="hDPYIisuoytdxOGGVnbc-3" vertex="1">
          <mxGeometry x="858" y="30" width="159" height="60" as="geometry" />
        </mxCell>
        <mxCell id="mTPu1nSo0R1RRkqdtAdQ-15" value="애니메이션 연출이 제대로 나오지 않는 문제" style="rounded=1;whiteSpace=wrap;html=1;" parent="hDPYIisuoytdxOGGVnbc-3" vertex="1">
          <mxGeometry x="858" y="100" width="159" height="60" as="geometry" />
        </mxCell>
        <mxCell id="PSq5UGeVe7J4AEmQiXRz-1" value="챕터 BGM이 나오지 않는 문제" style="rounded=1;whiteSpace=wrap;html=1;" parent="hDPYIisuoytdxOGGVnbc-3" vertex="1">
          <mxGeometry x="858" y="170" width="159" height="60" as="geometry" />
        </mxCell>
        <mxCell id="h3ZSoLO2vfeByswtqO_V-1" value="클리어한 지역 이름 표기" style="rounded=1;whiteSpace=wrap;html=1;" parent="hDPYIisuoytdxOGGVnbc-3" vertex="1">
          <mxGeometry x="858" y="240" width="159" height="60" as="geometry" />
        </mxCell>
        <mxCell id="z8pUPVwigBOaY4RKg8TQ-1" value="임시로 지역 이미지 추가하기" style="rounded=1;whiteSpace=wrap;html=1;" parent="hDPYIisuoytdxOGGVnbc-3" vertex="1">
          <mxGeometry x="858" y="310" width="159" height="60" as="geometry" />
        </mxCell>
        <mxCell id="JvFQZsxhrIlM6GvxB-Bj-4" value="지역 클리어 연출&lt;br&gt;[UI 홍은채님]" style="rounded=1;whiteSpace=wrap;html=1;" parent="hDPYIisuoytdxOGGVnbc-3" vertex="1">
          <mxGeometry x="858" y="380" width="159" height="60" as="geometry" />
        </mxCell>
        <mxCell id="JcdMrhdxGSStzC7vy00--24" value="중도포기 처리&lt;br&gt;[광래님]" style="rounded=1;whiteSpace=wrap;html=1;" parent="hDPYIisuoytdxOGGVnbc-3" vertex="1">
          <mxGeometry x="858" y="590" width="160" height="60" as="geometry" />
        </mxCell>
        <mxCell id="7aeweUhe6Mv9d77EpXdP-6" value="아지트에서 입장시 아지트로 보내기&lt;br&gt;[두용님]" style="rounded=1;whiteSpace=wrap;html=1;" vertex="1" parent="hDPYIisuoytdxOGGVnbc-3">
          <mxGeometry x="858" y="520" width="159" height="60" as="geometry" />
        </mxCell>
        <mxCell id="7aeweUhe6Mv9d77EpXdP-7" value="월드맵 진입 플로우 변경&lt;br&gt;[두용님]" style="rounded=1;whiteSpace=wrap;html=1;" vertex="1" parent="hDPYIisuoytdxOGGVnbc-3">
          <mxGeometry x="858" y="450" width="160" height="59" as="geometry" />
        </mxCell>
        <mxCell id="6kkVd8V_ymKgZ0_L0vxy-3" value="My Comment" style="swimlane;" parent="1" vertex="1">
          <mxGeometry x="49" y="730" width="1070" height="270" as="geometry">
            <mxRectangle x="49" y="720" width="100" height="23" as="alternateBounds" />
          </mxGeometry>
        </mxCell>
        <mxCell id="KfCYHrgsOKh0RXw9eGPa-2" value="&lt;h1&gt;Memo&lt;/h1&gt;&lt;p&gt;현재 다수 챕터가 필요한 연출: 챕터 스크롤의 스크롤 박스, 챕터 변경 연출, 챕터 진행도 계산&lt;/p&gt;" style="text;html=1;strokeColor=none;fillColor=none;spacing=5;spacingTop=-20;whiteSpace=wrap;overflow=hidden;rounded=0;align=left;" parent="6kkVd8V_ymKgZ0_L0vxy-3" vertex="1">
          <mxGeometry y="20" width="1070" height="250" as="geometry" />
        </mxCell>
        <mxCell id="oumLD8d3DvaTa1NXrWpt-27" value="Tool" style="swimlane;horizontal=0;" parent="1" vertex="1">
          <mxGeometry x="850" y="50" width="270" height="380" as="geometry" />
        </mxCell>
        <mxCell id="oumLD8d3DvaTa1NXrWpt-25" value="" style="rounded=1;whiteSpace=wrap;html=1;" parent="oumLD8d3DvaTa1NXrWpt-27" vertex="1">
          <mxGeometry x="31" y="10" width="159" height="60" as="geometry" />
        </mxCell>
        <mxCell id="oumLD8d3DvaTa1NXrWpt-31" value="" style="group" parent="oumLD8d3DvaTa1NXrWpt-27" vertex="1" connectable="0">
          <mxGeometry x="31" y="90" width="220" height="80" as="geometry" />
        </mxCell>
        <mxCell id="oumLD8d3DvaTa1NXrWpt-28" value="" style="rounded=1;whiteSpace=wrap;html=1;" parent="oumLD8d3DvaTa1NXrWpt-31" vertex="1">
          <mxGeometry width="159" height="60" as="geometry" />
        </mxCell>
        <mxCell id="oumLD8d3DvaTa1NXrWpt-29" value="" style="rounded=0;whiteSpace=wrap;html=1;" parent="oumLD8d3DvaTa1NXrWpt-31" vertex="1">
          <mxGeometry x="100" y="60" width="120" height="20" as="geometry" />
        </mxCell>
        <mxCell id="oumLD8d3DvaTa1NXrWpt-30" value="" style="rounded=0;whiteSpace=wrap;html=1;" parent="oumLD8d3DvaTa1NXrWpt-31" vertex="1">
          <mxGeometry x="100" y="40" width="120" height="20" as="geometry" />
        </mxCell>
        <mxCell id="oumLD8d3DvaTa1NXrWpt-32" value="" style="swimlane;fillColor=#dae8fc;strokeColor=#6c8ebf;" parent="oumLD8d3DvaTa1NXrWpt-27" vertex="1">
          <mxGeometry x="31.5" y="180" width="219.5" height="60" as="geometry" />
        </mxCell>
        <mxCell id="oumLD8d3DvaTa1NXrWpt-34" value="" style="swimlane;" parent="oumLD8d3DvaTa1NXrWpt-27" vertex="1">
          <mxGeometry x="31" y="260" width="219" height="50" as="geometry" />
        </mxCell>
        <mxCell id="Fb32EvJjGHJRLybvlaYY-3" value="Text" style="text;html=1;align=left;verticalAlign=middle;resizable=0;points=[];autosize=1;strokeColor=none;" parent="oumLD8d3DvaTa1NXrWpt-27" vertex="1">
          <mxGeometry x="220" y="20" width="40" height="20" as="geometry" />
        </mxCell>
        <mxCell id="Hf2SFhrhB0-e0Vb06iSS-1" value="고려" style="swimlane;fillColor=#e1d5e7;strokeColor=#9673a6;startSize=23;" parent="1" vertex="1">
          <mxGeometry x="620" y="50" width="219.5" height="380" as="geometry" />
        </mxCell>
        <mxCell id="Vl92tkifqei7AE4Ekfks-1" value="Public으로 열어놓은 데이터 값 정해지면 삭제하기" style="rounded=1;whiteSpace=wrap;html=1;" parent="Hf2SFhrhB0-e0Vb06iSS-1" vertex="1">
          <mxGeometry x="10" y="30" width="159" height="60" as="geometry" />
        </mxCell>
      </root>
    </mxGraphModel>
  </diagram>
</mxfile>
